<svg xmlns="http://www.w3.org/2000/svg" style="display: none;">
	<symbol id="general-dashboard-level" viewBox="0 0 24 24">
		<g class="nc-icon-wrapper">
			<line data-cap="butt" fill="none" stroke-miterlimit="10" x1="1.4" y1="15" x2="22.6" y2="15"
				  stroke-linejoin="miter" stroke-linecap="butt" stroke="currentColor"/>
			<line data-cap="butt" fill="none" stroke-miterlimit="10" x1="7" y1="6" x2="12" y2="15"
				  stroke-linejoin="miter" stroke-linecap="butt" stroke="currentColor"/>
			<circle fill="none" stroke="currentColor" stroke-linecap="square" stroke-miterlimit="10" cx="12" cy="12"
					r="11" stroke-linejoin="miter"/>
		</g>
	</symbol>
	<symbol id="general-grid-45" viewBox="0 0 24 24">
		<g class="nc-icon-wrapper">
			<rect x="1" y="1" fill="none" stroke="currentColor" stroke-linecap="square" stroke-miterlimit="10" width="9"
				  height="9" stroke-linejoin="miter"/>
			<rect x="14" y="1" fill="none" stroke-linecap="square" stroke-miterlimit="10" width="9" height="9"
				  stroke-linejoin="miter" stroke="currentColor"/>
			<rect x="1" y="14" fill="none" stroke-linecap="square" stroke-miterlimit="10" width="9" height="9"
				  stroke-linejoin="miter" stroke="currentColor"/>
			<rect x="14" y="14" fill="none" stroke="currentColor" stroke-linecap="square" stroke-miterlimit="10"
				  width="9" height="9" stroke-linejoin="miter"/>
		</g>
	</symbol>
	<symbol id="general-layout-11" viewBox="0 0 24 24">
		<g class="nc-icon-wrapper">
			<rect x="3" y="1" fill="none" stroke="currentColor" stroke-linecap="square" stroke-miterlimit="10" width="7"
				  height="12" stroke-linejoin="miter"/>
			<rect x="3" y="17" fill="none" stroke-linecap="square" stroke-miterlimit="10" width="7" height="6"
				  stroke-linejoin="miter" stroke="currentColor"/>
			<rect x="14" y="1" fill="none" stroke-linecap="square" stroke-miterlimit="10" width="7" height="6"
				  stroke-linejoin="miter" stroke="currentColor"/>
			<rect x="14" y="11" fill="none" stroke="currentColor" stroke-linecap="square" stroke-miterlimit="10"
				  width="7" height="12" stroke-linejoin="miter"/>
		</g>
	</symbol>
	<symbol id="general-spaceship" viewBox="0 0 24 24">
		<g class="nc-icon-wrapper">
			<line data-cap="butt" fill="none" stroke="currentColor" stroke-miterlimit="10" x1="14.935" y1="3.093"
				  x2="20.882" y2="9.04" stroke-linejoin="miter" stroke-linecap="butt"/>
			<path data-cap="butt" fill="none" stroke="currentColor" stroke-miterlimit="10"
				  d="M12.603,4.387 C9.682,3.129,6.164,3.693,3.779,6.079c-0.489,0.489-0.893,1.03-1.229,1.6l3.428,3.428"
				  stroke-linejoin="miter" stroke-linecap="butt"/>
			<path data-cap="butt" fill="none" stroke="currentColor" stroke-miterlimit="10"
				  d="M19.597,11.345 c1.29,2.932,0.725,6.475-1.676,8.876c-0.489,0.489-1.03,0.893-1.6,1.229l-3.442-3.442"
				  stroke-linejoin="miter" stroke-linecap="butt"/>
			<path fill="none" stroke="currentColor" stroke-linecap="square" stroke-miterlimit="10"
				  d="M10.143,19.514 l-5.657-5.657c0,0,4.832-12.021,18.385-12.728C22.104,14.623,10.143,19.514,10.143,19.514z"
				  stroke-linejoin="miter"/>
			<ellipse data-stroke="none" transform="matrix(0.7071 -0.7071 0.7071 0.7071 -2.9706 12.8284)" cx="14" cy="10"
					 rx="2" ry="2" stroke-linejoin="miter" stroke-linecap="square" stroke="none"/>
			<path data-stroke="none"
				  d="M1.113,18.844c1.111-1.111,2.911-1.111,4.022,0c1.111,1.111,1.111,2.911,0,4.022 S0,24,0,24S0.002,19.954,1.113,18.844z"
				  stroke-linejoin="miter" stroke-linecap="square" stroke="none"/>
		</g>
	</symbol>
	<symbol id="general-gear" viewBox="0 0 24 24">
		<g class="nc-icon-wrapper">
			<path fill="none" stroke="currentColor" stroke-linecap="square" stroke-miterlimit="10"
				  d="M23,12c0-1.105-0.895-2-2-2 h-1.262c-0.189-0.732-0.477-1.422-0.852-2.058l0.892-0.892c0.781-0.781,0.781-2.047,0-2.828c-0.781-0.781-2.047-0.781-2.828,0 l-0.892,0.892C15.422,4.739,14.732,4.451,14,4.262V3c0-1.104-0.895-2-2-2c-1.105,0-2,0.895-2,2v1.262 C9.268,4.451,8.578,4.739,7.942,5.114L7.05,4.222c-0.781-0.781-2.047-0.781-2.828,0c-0.781,0.781-0.781,2.047,0,2.828l0.892,0.892 C4.739,8.578,4.451,9.268,4.262,10H3c-1.104,0-2,0.895-2,2c0,1.105,0.895,2,2,2h1.262c0.189,0.732,0.477,1.422,0.852,2.058 L4.222,16.95c-0.781,0.781-0.781,2.047,0,2.828c0.781,0.781,2.047,0.781,2.828,0l0.892-0.892c0.635,0.375,1.326,0.663,2.058,0.852 V21c0,1.104,0.895,2,2,2c1.105,0,2-0.895,2-2v-1.262c0.732-0.189,1.422-0.477,2.058-0.852l0.892,0.892 c0.781,0.781,2.047,0.781,2.828,0c0.781-0.781,0.781-2.047,0-2.828l-0.892-0.892c0.375-0.635,0.663-1.326,0.852-2.058H21 C22.104,14,23,13.105,23,12z"
				  stroke-linejoin="miter"/>
			<circle fill="none" stroke-linecap="square" stroke-miterlimit="10" cx="12" cy="12" r="3"
					stroke-linejoin="miter" stroke="currentColor"/>
		</g>
	</symbol>
	<symbol id="general-book-39" viewBox="0 0 64 64">
		<g class="nc-icon-wrapper">
			<line fill="none" stroke-linecap="square" stroke-miterlimit="10" x1="57" y1="56" x2="15" y2="56"
				  stroke-linejoin="miter" stroke="currentColor"/>
			<path data-cap="butt" fill="none" stroke="currentColor" stroke-miterlimit="10"
				  d="M57,50V2H13C9.686,2,7,4.686,7,8v48" stroke-linecap="butt"/>
			<path fill="none" stroke="currentColor" stroke-linecap="square" stroke-miterlimit="10"
				  d="M57,62V50H13 c-3.314,0-6,2.686-6,6v0c0,3.314,2.686,6,6,6H57z" stroke-linejoin="miter"/>
			<line fill="none" stroke="currentColor" stroke-linecap="square" stroke-miterlimit="10" x1="15" y1="50"
				  x2="15" y2="10" stroke-linejoin="miter"/>
			<rect x="25" y="15" fill="none" stroke-linecap="square" stroke-miterlimit="10" width="22" height="14"
				  stroke-linejoin="miter" stroke="currentColor"/>
		</g>
	</symbol>
	<symbol id="general-notes" viewBox="0 0 64 64">
		<g class="nc-icon-wrapper">
			<line fill="none" stroke-linecap="square" stroke-miterlimit="10" x1="22" y1="28" x2="42" y2="28"
				  stroke-linejoin="miter" stroke="currentColor"/>
			<line fill="none" stroke-linecap="square" stroke-miterlimit="10" x1="22" y1="37" x2="42" y2="37"
				  stroke-linejoin="miter" stroke="currentColor"/>
			<line fill="none" stroke-linecap="square" stroke-miterlimit="10" x1="22" y1="46" x2="30" y2="46"
				  stroke-linejoin="miter" stroke="currentColor"/>
			<polyline fill="none" stroke="currentColor" stroke-linecap="square" stroke-miterlimit="10"
					  points="49,11 57,11 57,62 7,62 7,11 15,11 " stroke-linejoin="miter"/>
			<path fill="none" stroke="currentColor" stroke-linecap="square" stroke-miterlimit="10"
				  d="M39,9c0-3.866-3.134-7-7-7 s-7,3.134-7,7h-5v8h24V9H39z" stroke-linejoin="miter"/>
			<circle cx="32" cy="9" r="2" data-stroke="none" stroke-linejoin="miter" stroke-linecap="square"
					stroke="none"/>
			<polyline fill="none" stroke-linecap="square" stroke-miterlimit="10" points=" 51,17 51,56 13,56 13,17 "
					  stroke-linejoin="miter" stroke="currentColor"/>
		</g>
	</symbol>
	<symbol id="general-gear-2" viewBox="0 0 64 64">
		<g class="nc-icon-wrapper">
			<circle cx="32" cy="32" r="9" fill="none" stroke-linecap="square" stroke-miterlimit="10"
					stroke-linejoin="miter" stroke="currentColor"/>
			<path
				d="M62,32h0a4.445,4.445,0,0,0-4.077-4.43l-4.65-.389a21.681,21.681,0,0,0-2.826-6.806L53.47,16.8a4.445,4.445,0,0,0-.249-6.015h0a4.446,4.446,0,0,0-6.015-.249l-3.573,3.023a21.643,21.643,0,0,0-6.814-2.834l-.389-4.65A4.445,4.445,0,0,0,32,2h0a4.445,4.445,0,0,0-4.43,4.077l-.389,4.65a21.681,21.681,0,0,0-6.806,2.826L16.8,10.536a4.446,4.446,0,0,0-6.015.25h0a4.446,4.446,0,0,0-.249,6.015l3.023,3.573a21.652,21.652,0,0,0-2.834,6.807L6.07,27.57A4.445,4.445,0,0,0,2,32H2a4.445,4.445,0,0,0,4.077,4.43l4.657.389a21.657,21.657,0,0,0,2.826,6.806L10.536,47.2a4.446,4.446,0,0,0,.25,6.015h0a4.446,4.446,0,0,0,6.015.249l3.573-3.023a21.652,21.652,0,0,0,6.807,2.834l.389,4.657A4.445,4.445,0,0,0,32,62h0a4.445,4.445,0,0,0,4.43-4.077l.389-4.657a21.657,21.657,0,0,0,6.806-2.826L47.2,53.464a4.446,4.446,0,0,0,6.015-.25h0a4.446,4.446,0,0,0,.249-6.015l-3.023-3.573a21.652,21.652,0,0,0,2.834-6.807l4.657-.389A4.445,4.445,0,0,0,62,32Z"
				fill="none" stroke="currentColor" stroke-linecap="square" stroke-miterlimit="10"
				stroke-linejoin="miter"/>
		</g>
	</symbol>
	<symbol id="general-calendar-date" viewBox="0 0 24 24">
		<g class="nc-icon-wrapper">
			<rect x="4" y="10" width="4" height="3" fill="currentColor" stroke="none" stroke-linecap="square"
				  stroke-miterlimit="10" stroke-linejoin="miter"/>
			<rect x="10" y="10" width="4" height="3" fill="currentColor" stroke="none" stroke-linecap="square"
				  stroke-miterlimit="10" stroke-linejoin="miter"/>
			<rect x="4" y="15" width="4" height="3" fill="currentColor" stroke="none" stroke-linecap="square"
				  stroke-miterlimit="10" stroke-linejoin="miter"/>
			<rect x="10" y="15" width="4" height="3" fill="currentColor" stroke="none" stroke-linecap="square"
				  stroke-miterlimit="10" stroke-linejoin="miter"/>
			<rect x="16" y="10" width="4" height="3" fill="currentColor" stroke="none" stroke-linecap="square"
				  stroke-miterlimit="10" stroke-linejoin="miter"/>
			<path
				d="M23,3H18V1a1,1,0,0,0-2,0V3H8V1A1,1,0,0,0,6,1V3H1A1,1,0,0,0,0,4V22a1,1,0,0,0,1,1H23a1,1,0,0,0,1-1V4A1,1,0,0,0,23,3ZM22,21H2V7H22Z"
				fill="currentColor" stroke="none" stroke-linecap="square" stroke-miterlimit="10" stroke-linejoin="miter" />
		</g>
	</symbol>
	<symbol id="general-file-text" viewBox="0 0 48 48">
		<g class="nc-icon-wrapper">
			<polygon points="31 1.586 31 13 42.414 13 31 1.586"/>
			<path
				d="M30,15a1,1,0,0,1-1-1V1H7A2,2,0,0,0,5,3V45a2,2,0,0,0,2,2H41a2,2,0,0,0,2-2V15ZM14,15h8a1,1,0,0,1,0,2H14a1,1,0,0,1,0-2ZM34,37H14a1,1,0,0,1,0-2H34a1,1,0,0,1,0,2Zm0-10H14a1,1,0,0,1,0-2H34a1,1,0,0,1,0,2Z"/>
		</g>
	</symbol>
	<symbol id="general-tags-stack" viewBox="0 0 24 24">
		<g class="nc-icon-wrapper">
			<path d="M13.243,22.414l5.171-5.171a2,2,0,0,0,0-2.829L9,5H1v8l9.414,9.414A2,2,0,0,0,13.243,22.414Z"
				  fill="none" stroke="currentColor" stroke-linecap="square" stroke-miterlimit="10"
				  stroke-linejoin="miter"/>
			<polyline points="21 11 11 1 3 1" fill="none" stroke-linecap="square" stroke-miterlimit="10"
					  stroke-linejoin="miter" stroke="currentColor"/>
			<circle cx="6" cy="10" r="2" data-cap="butt" data-stroke="none" stroke-linecap="butt" stroke="none"/>
		</g>
	</symbol>
	<symbol id="general-clock" viewBox="0 0 12 12">
		<g class="nc-icon-wrapper">
			<path d="M6,12a6,6,0,1,1,6-6A6.006,6.006,0,0,1,6,12ZM6,2a4,4,0,1,0,4,4A4,4,0,0,0,6,2Z"/>
			<path d="M8.5,6.5H6A.5.5,0,0,1,5.5,6V3.5a.5.5,0,0,1,1,0v2h2a.5.5,0,0,1,0,1Z"/>
		</g>
	</symbol>
	<symbol id="general-gear-3" viewBox="0 0 48 48">
		<g class="nc-icon-wrapper">
			<circle cx="24" cy="24" r="7" fill="none" stroke-linecap="square" stroke-miterlimit="10"
					stroke-linejoin="miter" stroke="currentColor"/>
			<path
				d="M46,24h0a3.26,3.26,0,0,0-2.99-3.249L39.6,20.466a15.89,15.89,0,0,0-2.072-4.991l2.217-2.62a3.26,3.26,0,0,0-.183-4.411h0a3.26,3.26,0,0,0-4.411-.183l-2.62,2.217A15.876,15.876,0,0,0,27.534,8.4L27.249,4.99A3.26,3.26,0,0,0,24,2h0a3.26,3.26,0,0,0-3.249,2.99L20.466,8.4a15.89,15.89,0,0,0-4.991,2.072L12.855,8.26a3.26,3.26,0,0,0-4.411.183h0a3.26,3.26,0,0,0-.183,4.411l2.217,2.62A15.876,15.876,0,0,0,8.4,20.466l-3.415.285A3.26,3.26,0,0,0,2,24H2a3.26,3.26,0,0,0,2.99,3.249l3.415.285a15.89,15.89,0,0,0,2.072,4.991L8.26,35.145a3.26,3.26,0,0,0,.183,4.411h0a3.26,3.26,0,0,0,4.411.183l2.62-2.217A15.876,15.876,0,0,0,20.466,39.6l.285,3.415A3.26,3.26,0,0,0,24,46h0a3.26,3.26,0,0,0,3.249-2.99l.285-3.415a15.89,15.89,0,0,0,4.991-2.072l2.62,2.217a3.26,3.26,0,0,0,4.411-.183h0a3.26,3.26,0,0,0,.183-4.411l-2.217-2.62A15.876,15.876,0,0,0,39.6,27.534l3.415-.285A3.26,3.26,0,0,0,46,24Z"
				fill="none" stroke="currentColor" stroke-linecap="square" stroke-miterlimit="10"
				stroke-linejoin="miter"/>
		</g>
	</symbol>
	<symbol id="general-a-edit" viewBox="0 0 24 24">
		<g class="nc-icon-wrapper">
			<path data-cap="butt" fill="none" stroke="currentColor" stroke-miterlimit="10"
				  d="M10,13 c-2.824,0-5.329,0.638-6.975,1.193C1.81,14.604,1,15.749,1,17.032V21h8"
				  stroke-linejoin="miter" stroke-linecap="butt"/>
			<path fill="none" stroke="currentColor" stroke-linecap="square" stroke-miterlimit="10"
				  d="M10,13L10,13 c-2.761,0-5-3.239-5-6V6c0-2.761,2.239-5,5-5h0c2.761,0,5,2.239,5,5v1C15,9.761,12.761,13,10,13z"
				  stroke-linejoin="miter"/>
			<polygon fill="none" stroke-linecap="square" stroke-miterlimit="10" points=" 16,23 13,23 13,20 19,14 22,17 "
					 stroke-linejoin="miter" stroke="currentColor"/>
		</g>
	</symbol>
	<symbol id="general-menu-8" viewBox="0 0 24 24">
		<g class="nc-icon-wrapper">
			<line fill="none" stroke-linecap="square" stroke-miterlimit="10" x1="1" y1="12" x2="23" y2="12"
				  stroke-linejoin="miter" stroke="currentColor"/>
			<line fill="none" stroke="currentColor" stroke-linecap="square" stroke-miterlimit="10" x1="1" y1="5" x2="23"
				  y2="5" stroke-linejoin="miter"/>
			<line fill="none" stroke="currentColor" stroke-linecap="square" stroke-miterlimit="10" x1="1" y1="19"
				  x2="23" y2="19" stroke-linejoin="miter"/>
		</g>
	</symbol>
	<symbol id="general-book-39-2" viewBox="0 0 48 48">
		<g class="nc-icon-wrapper">
			<path data-cap="butt" fill="none" stroke="currentColor" stroke-miterlimit="10"
				  d="M42,38V2H10C7.791,2,6,3.791,6,6v36" stroke-linecap="butt"/>
			<path fill="none" stroke="currentColor" stroke-linecap="square" stroke-miterlimit="10"
				  d="M42,46v-8H10 c-2.209,0-4,1.791-4,4v0c0,2.209,1.791,4,4,4H42z" stroke-linejoin="miter"/>
			<line fill="none" stroke="currentColor" stroke-linecap="square" stroke-miterlimit="10" x1="12" y1="38"
				  x2="12" y2="10" stroke-linejoin="miter"/>
			<rect x="19" y="13" fill="none" stroke-linecap="square" stroke-miterlimit="10" width="16" height="10"
				  stroke-linejoin="miter" stroke="currentColor"/>
		</g>
	</symbol>
	<symbol id="general-c-question" viewBox="0 0 16 16">
		<g class="nc-icon-wrapper">
			<path
				d="M8,0C3.6,0,0,3.6,0,8s3.6,8,8,8s8-3.6,8-8S12.4,0,8,0z M8,13c-0.6,0-1-0.4-1-1c0-0.6,0.4-1,1-1s1,0.4,1,1 C9,12.6,8.6,13,8,13z M9.5,8.4C9,8.7,9,8.8,9,9v1H7V9c0-1.3,0.8-1.9,1.4-2.3C8.9,6.4,9,6.3,9,6c0-0.6-0.4-1-1-1 C7.6,5,7.3,5.2,7.1,5.5L6.6,6.4l-1.7-1l0.5-0.9C5.9,3.6,6.9,3,8,3c1.7,0,3,1.3,3,3C11,7.4,10.1,8,9.5,8.4z"/>
		</g>
	</symbol>
	<symbol id="general-padlock" viewBox="0 0 16 16">
		<g class="nc-icon-wrapper">
			<path
				d="M8,0C5.8,0,4,1.8,4,4v1.5C2.8,6.6,2,8.2,2,10c0,3.3,2.7,6,6,6s6-2.7,6-6c0-1.8-0.8-3.4-2-4.5V4 C12,1.8,10.2,0,8,0z M9,10.7V13H7v-2.3c-0.6-0.3-1-1-1-1.7c0-1.1,0.9-2,2-2s2,0.9,2,2C10,9.7,9.6,10.4,9,10.7z M10,4.4 C9.4,4.1,8.7,4,8,4S6.6,4.1,6,4.4V4c0-1.1,0.9-2,2-2s2,0.9,2,2V4.4z"/>
		</g>
	</symbol>
	<symbol id="general-calendar-date-2" viewBox="0 0 16 16">
		<g class="nc-icon-wrapper">
			<path
				d="M15,2h-2V0h-3v2H6V0H3v2H1C0.448,2,0,2.448,0,3v12c0,0.552,0.448,1,1,1h14c0.552,0,1-0.448,1-1V3 C16,2.448,15.552,2,15,2z M14,14H2V5h12V14z"/>
			<rect x="4" y="7" width="2" height="2"/>
			<rect x="7" y="7" width="2" height="2"/>
			<rect x="4" y="10" width="2" height="2"/>
			<rect x="7" y="10" width="2" height="2"/>
			<rect x="10" y="7" width="2" height="2"/>
			<rect x="10" y="10" width="2" height="2"/>
		</g>
	</symbol>
	<symbol id="general-hotel-2" viewBox="0 0 48 48">
		<g class="nc-icon-wrapper">
			<polyline fill="none" stroke-linecap="square" stroke-miterlimit="10" points=" 10,46 2,46 2,28 10,28 "
					  stroke-linejoin="miter" stroke="currentColor"/>
			<polyline fill="none" stroke-linecap="square" stroke-miterlimit="10" points=" 38,46 46,46 46,28 38,28 "
					  stroke-linejoin="miter" stroke="currentColor"/>
			<polyline fill="none" stroke-linecap="square" stroke-miterlimit="10" points=" 20,2 20,4 20,10 "
					  stroke-linejoin="miter" stroke="currentColor"/>
			<line fill="none" stroke-linecap="square" stroke-miterlimit="10" x1="28" y1="10" x2="28" y2="2"
				  stroke-linejoin="miter" stroke="currentColor"/>
			<line fill="none" stroke-linecap="square" stroke-miterlimit="10" x1="28" y1="5" x2="20" y2="5"
				  stroke-linejoin="miter" stroke="currentColor"/>
			<rect x="10" y="10" fill="none" stroke="currentColor" stroke-linecap="square" stroke-miterlimit="10"
				  width="28" height="36" stroke-linejoin="miter"/>
			<line fill="none" stroke="currentColor" stroke-linecap="square" stroke-miterlimit="10" x1="18" y1="16"
				  x2="20" y2="16" stroke-linejoin="miter"/>
			<line fill="none" stroke="currentColor" stroke-linecap="square" stroke-miterlimit="10" x1="28" y1="16"
				  x2="30" y2="16" stroke-linejoin="miter"/>
			<line fill="none" stroke="currentColor" stroke-linecap="square" stroke-miterlimit="10" x1="18" y1="22"
				  x2="20" y2="22" stroke-linejoin="miter"/>
			<line fill="none" stroke="currentColor" stroke-linecap="square" stroke-miterlimit="10" x1="28" y1="22"
				  x2="30" y2="22" stroke-linejoin="miter"/>
			<line fill="none" stroke="currentColor" stroke-linecap="square" stroke-miterlimit="10" x1="18" y1="28"
				  x2="20" y2="28" stroke-linejoin="miter"/>
			<line fill="none" stroke="currentColor" stroke-linecap="square" stroke-miterlimit="10" x1="28" y1="28"
				  x2="30" y2="28" stroke-linejoin="miter"/>
			<line fill="none" stroke="currentColor" stroke-linecap="square" stroke-miterlimit="10" x1="18" y1="34"
				  x2="20" y2="34" stroke-linejoin="miter"/>
			<line fill="none" stroke="currentColor" stroke-linecap="square" stroke-miterlimit="10" x1="28" y1="34"
				  x2="30" y2="34" stroke-linejoin="miter"/>
			<polyline fill="none" stroke="currentColor" stroke-linecap="square" stroke-miterlimit="10"
					  points="27,46 27,40 21,40 21,46 " stroke-linejoin="miter"/>
		</g>
	</symbol>
	<symbol id="general-leave" viewBox="0 0 48 48">
		<g class="nc-icon-wrapper">
			<line data-cap="butt" x1="23" y1="20" x2="45" y2="20" fill="none" stroke-miterlimit="10"
				  stroke-linecap="butt" stroke="currentColor"/>
			<polyline data-cap="butt" points="27 26.031 27 35 16 35" fill="none" stroke="currentColor"
					  stroke-miterlimit="10" stroke-linecap="butt"/>
			<polyline data-cap="butt" points="2 3 16 12 16 44 2 35 2 3 27 3 27 14" fill="none" stroke="currentColor"
					  stroke-miterlimit="10" stroke-linecap="butt"/>
			<polyline points="37 12 45 20 37 28" fill="none" stroke-linecap="square" stroke-miterlimit="10"
					  stroke-linejoin="miter" stroke="currentColor"/>
		</g>
	</symbol>
	<symbol id="general-businessman-04" viewBox="0 0 48 48">
		<g class="nc-icon-wrapper">
			<line fill="none" stroke-linecap="square" stroke-miterlimit="10" x1="24" y1="12" x2="24" y2="46"
				  stroke-linejoin="miter" stroke="currentColor"/>
			<line fill="none" stroke-linecap="square" stroke-miterlimit="10" x1="32" y1="28" x2="40" y2="28"
				  stroke-linejoin="miter" stroke="currentColor"/>
			<line fill="none" stroke-linecap="square" stroke-miterlimit="10" x1="17" y1="26" x2="18" y2="26"
				  stroke-linejoin="miter" stroke="currentColor"/>
			<line fill="none" stroke-linecap="square" stroke-miterlimit="10" x1="17" y1="33" x2="18" y2="33"
				  stroke-linejoin="miter" stroke="currentColor"/>
			<line fill="none" stroke-linecap="square" stroke-miterlimit="10" x1="17" y1="40" x2="18" y2="40"
				  stroke-linejoin="miter" stroke="currentColor"/>
			<polyline fill="none" stroke="currentColor" stroke-linecap="square" stroke-miterlimit="10"
					  points="36,8 46,8 46,46 2,46 2,8 12,8 " stroke-linejoin="miter"/>
			<polyline data-cap="butt" fill="none" stroke="currentColor" stroke-miterlimit="10"
					  points="36,2 24,12 36,20 36,2 12,2 12,20 24,12 12,2 " stroke-linejoin="miter"
					  stroke-linecap="butt"/>
		</g>
	</symbol>
	<symbol id="general-app-store" viewBox="0 0 24 24">
		<g class="nc-icon-wrapper">
			<rect x="2" y="2" width="7" height="7" fill="none" stroke="currentColor" stroke-linecap="square"
				  stroke-miterlimit="10" stroke-linejoin="miter"/>
			<rect x="15.651" y="2.651" width="5.698" height="5.698" transform="translate(9.308 -11.471) rotate(45)"
				  fill="none" stroke-linecap="square" stroke-miterlimit="10" stroke-linejoin="miter"
				  stroke="currentColor"/>
			<rect x="15" y="15" width="7" height="7" fill="none" stroke="currentColor" stroke-linecap="square"
				  stroke-miterlimit="10" stroke-linejoin="miter"/>
			<rect x="2" y="15" width="7" height="7" fill="none" stroke="currentColor" stroke-linecap="square"
				  stroke-miterlimit="10" stroke-linejoin="miter"/>
		</g>
	</symbol>
	<symbol id="general-app-store-2" viewBox="0 0 48 48">
		<g class="nc-icon-wrapper">
			<rect x="4" y="4" width="15" height="15" fill="none" stroke="currentColor" stroke-linecap="square"
				  stroke-miterlimit="10" stroke-linejoin="miter"/>
			<rect x="30.077" y="5.077" width="12.847" height="12.847" transform="translate(18.822 -22.441) rotate(45)"
				  fill="none" stroke-linecap="square" stroke-miterlimit="10" stroke-linejoin="miter"
				  stroke="currentColor"/>
			<rect x="29" y="29" width="15" height="15" fill="none" stroke="currentColor" stroke-linecap="square"
				  stroke-miterlimit="10" stroke-linejoin="miter"/>
			<rect x="4" y="29" width="15" height="15" fill="none" stroke="currentColor" stroke-linecap="square"
				  stroke-miterlimit="10" stroke-linejoin="miter"/>
		</g>
	</symbol>
	<symbol id="general-contrast" viewBox="0 0 24 24">
		<g class="nc-icon-wrapper">
			<line data-cap="butt" fill="none" stroke="currentColor" stroke-miterlimit="10" x1="2" y1="12" x2="10"
				  y2="12" stroke-linejoin="miter" stroke-linecap="butt"/>
			<polyline fill="none" stroke="currentColor" stroke-linecap="square" stroke-miterlimit="10"
					  points="6,16 2,12 6,8 " stroke-linejoin="miter"/>
			<line data-cap="butt" fill="none" stroke-miterlimit="10" x1="22" y1="12" x2="14" y2="12"
				  stroke-linejoin="miter" stroke-linecap="butt" stroke="currentColor"/>
			<polyline fill="none" stroke-linecap="square" stroke-miterlimit="10" points=" 18,16 22,12 18,8 "
					  stroke-linejoin="miter" stroke="currentColor"/>
		</g>
	</symbol>
	<symbol id="general-small-down" viewBox="0 0 24 24">
		<g class="nc-icon-wrapper">
			<polyline fill="none" stroke="currentColor" stroke-linecap="square" stroke-miterlimit="10"
					  points="16,10 12,14 8,10 " transform="translate(0, 0)" stroke-linejoin="miter"/>
		</g>
	</symbol>
	<symbol id="general-compare" viewBox="0 0 24 24">
		<g class="nc-icon-wrapper">
			<line data-cap="butt" fill="none" stroke="currentColor" stroke-miterlimit="10" x1="1" y1="12" x2="10"
				  y2="12" stroke-linejoin="miter" stroke-linecap="butt"/>
			<polyline fill="none" stroke="currentColor" stroke-linecap="square" stroke-miterlimit="10"
					  points="6,16 10,12 6,8 " stroke-linejoin="miter"/>
			<line data-cap="butt" fill="none" stroke-miterlimit="10" x1="23" y1="12" x2="14" y2="12"
				  stroke-linejoin="miter" stroke-linecap="butt" stroke="currentColor"/>
			<polyline fill="none" stroke-linecap="square" stroke-miterlimit="10" points=" 18,16 14,12 18,8 "
					  stroke-linejoin="miter" stroke="currentColor"/>
		</g>
	</symbol>
	<symbol id="general-text-2-2" viewBox="0 0 24 24">
		<g class="nc-icon-wrapper">
			<path data-cap="butt" fill="none" stroke-miterlimit="10" d="M9,7c1.657,0,3,1.343,3,3"
				  stroke-linejoin="miter" stroke-linecap="butt" stroke="currentColor"/>
			<path data-cap="butt" fill="none" stroke-miterlimit="10" d="M15,7c-1.657,0-3,1.343-3,3"
				  stroke-linejoin="miter" stroke-linecap="butt" stroke="currentColor"/>
			<path data-cap="butt" fill="none" stroke-miterlimit="10" d="M9,17c1.657,0,3-1.343,3-3"
				  stroke-linejoin="miter" stroke-linecap="butt" stroke="currentColor"/>
			<path data-cap="butt" fill="none" stroke-miterlimit="10" d="M15,17c-1.657,0-3-1.343-3-3"
				  stroke-linejoin="miter" stroke-linecap="butt" stroke="currentColor"/>
			<line data-cap="butt" fill="none" stroke-miterlimit="10" x1="12" y1="10" x2="12" y2="14"
				  stroke-linejoin="miter" stroke-linecap="butt" stroke="currentColor"/>
			<line fill="none" stroke="currentColor" stroke-linecap="square" stroke-miterlimit="10" x1="21" y1="5"
				  x2="21" y2="19" stroke-linejoin="miter"/>
			<line fill="none" stroke="currentColor" stroke-linecap="square" stroke-miterlimit="10" x1="5" y1="3" x2="19"
				  y2="3" stroke-linejoin="miter"/>
			<line fill="none" stroke="currentColor" stroke-linecap="square" stroke-miterlimit="10" x1="5" y1="21"
				  x2="19" y2="21" stroke-linejoin="miter"/>
			<line fill="none" stroke="currentColor" stroke-linecap="square" stroke-miterlimit="10" x1="3" y1="19" x2="3"
				  y2="5" stroke-linejoin="miter"/>
			<rect x="1" y="1" fill="none" stroke="currentColor" stroke-linecap="square" stroke-miterlimit="10" width="4"
				  height="4" stroke-linejoin="miter"/>
			<rect x="19" y="1" transform="matrix(-1.836970e-16 1 -1 -1.836970e-16 24 -18)" fill="none"
				  stroke="currentColor" stroke-linecap="square" stroke-miterlimit="10" width="4" height="4"
				  stroke-linejoin="miter"/>
			<rect x="19" y="19" transform="matrix(-1 -1.224647e-16 1.224647e-16 -1 42 42)" fill="none"
				  stroke="currentColor" stroke-linecap="square" stroke-miterlimit="10" width="4" height="4"
				  stroke-linejoin="miter"/>
			<rect x="1" y="19" transform="matrix(6.123234e-17 -1 1 6.123234e-17 -18 24)" fill="none"
				  stroke="currentColor" stroke-linecap="square" stroke-miterlimit="10" width="4" height="4"
				  stroke-linejoin="miter"/>
		</g>
	</symbol>
	<symbol id="general-enlarge" viewBox="0 0 24 24">
		<g class="nc-icon-wrapper">
			<polyline points="7 8 12 3 17 8" fill="none" stroke="currentColor" stroke-linecap="square"
					  stroke-miterlimit="10" stroke-linejoin="miter"/>
			<polyline points="17 16 12 21 7 16" fill="none" stroke-linecap="square" stroke-miterlimit="10"
					  stroke-linejoin="miter" stroke="currentColor"/>
		</g>
	</symbol>
	<symbol id="general-drag" viewBox="0 0 24 24">
		<g class="nc-icon-wrapper">
			<polyline fill="none" stroke-linecap="square" stroke-miterlimit="10" points=" 1,4 1,1 4,1 "
					  stroke-linejoin="miter" stroke="currentColor"/>
			<polyline fill="none" stroke-linecap="square" stroke-miterlimit="10" points=" 4,19 1,19 1,16 "
					  stroke-linejoin="miter" stroke="currentColor"/>
			<polyline fill="none" stroke-linecap="square" stroke-miterlimit="10" points=" 16,1 19,1 19,4 "
					  stroke-linejoin="miter" stroke="currentColor"/>
			<line fill="none" stroke-linecap="square" stroke-miterlimit="10" x1="9" y1="1" x2="11" y2="1"
				  stroke-linejoin="miter" stroke="currentColor"/>
			<line fill="none" stroke-linecap="square" stroke-miterlimit="10" x1="1" y1="9" x2="1" y2="11"
				  stroke-linejoin="miter" stroke="currentColor"/>
			<polygon fill="none" stroke="currentColor" stroke-linecap="square" stroke-miterlimit="10"
					 points="21,11 9,9 11,21 14,17 19,22 22,19 17,14 " stroke-linejoin="miter"/>
		</g>
	</symbol>
	<symbol id="general-survey" viewBox="0 0 24 24">
		<g class="nc-icon-wrapper">
			<line x1="12" y1="6" x2="23" y2="6" fill="none" stroke="currentColor" stroke-linecap="square"
				  stroke-miterlimit="10" stroke-linejoin="miter"/>
			<rect x="2" y="3" width="6" height="6" fill="none" stroke="currentColor" stroke-linecap="square"
				  stroke-miterlimit="10" stroke-linejoin="miter"/>
			<line x1="12" y1="18" x2="23" y2="18" fill="none" stroke-linecap="square" stroke-miterlimit="10"
				  stroke-linejoin="miter" stroke="currentColor"/>
			<line x1="2" y1="15" x2="8" y2="21" fill="none" stroke-linecap="square" stroke-miterlimit="10"
				  stroke-linejoin="miter" stroke="currentColor"/>
			<line x1="8" y1="15" x2="2" y2="21" fill="none" stroke-linecap="square" stroke-miterlimit="10"
				  stroke-linejoin="miter" stroke="currentColor"/>
		</g>
	</symbol>
	<symbol id="general-c-remove" viewBox="0 0 24 24">
		<g class="nc-icon-wrapper">
			<line fill="none" stroke-linecap="square" stroke-miterlimit="10" x1="16" y1="8" x2="8" y2="16"
				  stroke-linejoin="miter" stroke="currentColor"/>
			<line fill="none" stroke-linecap="square" stroke-miterlimit="10" x1="16" y1="16" x2="8" y2="8"
				  stroke-linejoin="miter" stroke="currentColor"/>
			<circle fill="none" stroke="currentColor" stroke-linecap="square" stroke-miterlimit="10" cx="12" cy="12"
					r="11" stroke-linejoin="miter"/>
		</g>
	</symbol>
	<symbol id="general-c-check" viewBox="0 0 24 24">
		<g class="nc-icon-wrapper">
			<polyline fill="none" stroke-linecap="square" stroke-miterlimit="10" points=" 6,12 10,16 18,8 "
					  stroke-linejoin="miter" stroke="currentColor"/>
			<circle fill="none" stroke="currentColor" stroke-linecap="square" stroke-miterlimit="10" cx="12" cy="12"
					r="11" stroke-linejoin="miter"/>
		</g>
	</symbol>
	<symbol id="general-t-warning" viewBox="0 0 24 24">
		<g class="nc-icon-wrapper">
			<polygon fill="none" stroke="currentColor" stroke-linecap="square" stroke-miterlimit="10"
					 points="2,22 12,3 22,22 " stroke-linejoin="miter"/>
			<line fill="none" stroke-linecap="square" stroke-miterlimit="10" x1="12" y1="11" x2="12" y2="15"
				  stroke-linejoin="miter" stroke="currentColor"/>
			<circle data-stroke="none" cx="12" cy="18" r="1" stroke-linejoin="miter" stroke-linecap="square"
					stroke="currentColor"/>
		</g>
	</symbol>
	<symbol id="general-pointing-up" viewBox="0 0 24 24">
		<g class="nc-icon-wrapper">
			<polygon fill="none" stroke="currentColor" stroke-linecap="square" stroke-miterlimit="10"
					 points="21,20 3,20 12,8 " stroke-linejoin="miter"/>
			<line fill="none" stroke-linecap="square" stroke-miterlimit="10" x1="3" y1="4" x2="21" y2="4"
				  stroke-linejoin="miter" stroke="currentColor"/>
		</g>
	</symbol>
	<symbol id="general-triangle-up" viewBox="0 0 24 24">
		<g class="nc-icon-wrapper">
			<polygon fill="none" stroke="currentColor" stroke-linecap="square" stroke-miterlimit="10"
					 points="3,18 21,18 12,6 " transform="translate(0, 0)" stroke-linejoin="miter"/>
		</g>
	</symbol>
	<symbol id="general-pointing-down" viewBox="0 0 24 24">
		<g class="nc-icon-wrapper">
			<polygon fill="none" stroke="currentColor" stroke-linecap="square" stroke-miterlimit="10"
					 points="3,4 21,4 12,16 " stroke-linejoin="miter"/>
			<line fill="none" stroke-linecap="square" stroke-miterlimit="10" x1="21" y1="20" x2="3" y2="20"
				  stroke-linejoin="miter" stroke="currentColor"/>
		</g>
	</symbol>
	<symbol id="general-triangle-down" viewBox="0 0 24 24">
		<g class="nc-icon-wrapper">
			<polygon fill="none" stroke="currentColor" stroke-linecap="square" stroke-miterlimit="10"
					 points="3,6 21,6 12,18 " transform="translate(0, 0)" stroke-linejoin="miter"/>
		</g>
	</symbol>
	<symbol id="general-delete-forever" viewBox="0 0 24 24">
		<g class="nc-icon-wrapper">
			<path d="M20,9V21a2,2,0,0,1-2,2H6a2,2,0,0,1-2-2V9" fill="none" stroke="currentColor" stroke-linecap="square"
				  stroke-miterlimit="10" stroke-linejoin="miter"/>
			<line x1="1" y1="5" x2="23" y2="5" fill="none" stroke="currentColor" stroke-linecap="square"
				  stroke-miterlimit="10" stroke-linejoin="miter"/>
			<polyline points="8 5 8 1 16 1 16 5" fill="none" stroke="currentColor" stroke-linecap="square"
					  stroke-miterlimit="10" stroke-linejoin="miter"/>
			<line x1="15" y1="11.985" x2="9" y2="17.985" fill="none" stroke-linecap="square" stroke-miterlimit="10"
				  stroke-linejoin="miter" stroke="currentColor"/>
			<line x1="15" y1="17.985" x2="9" y2="11.985" fill="none" stroke-linecap="square" stroke-miterlimit="10"
				  stroke-linejoin="miter" stroke="currentColor"/>
		</g>
	</symbol>
	<symbol id="general-settings" viewBox="0 0 24 24">
		<g class="nc-icon-wrapper">
			<path d="M14,19l2.95,2.95a3.5,3.5,0,0,0,5,0h0a3.5,3.5,0,0,0,0-5L20,15" fill="none" stroke-linecap="square"
				  stroke-miterlimit="10" stroke-linejoin="miter" stroke="currentColor"/>
			<line data-cap="butt" x1="9.925" y1="10.225" x2="6.5" y2="6.8" fill="none" stroke-miterlimit="10"
				  stroke-linecap="butt" stroke="currentColor"/>
			<polygon points="4.4 7.5 6.5 6.8 7.2 4.7 4.4 1.9 1.6 4.7 4.4 7.5" fill="none" stroke-linecap="square"
					 stroke-miterlimit="10" stroke-linejoin="miter" stroke="currentColor"/>
			<path
				d="M22.678,4.922,19.6,7.987,16.005,4.411l3.08-3.066a4.212,4.212,0,0,0-2.259-.307,5.615,5.615,0,0,0-5.133,5.723A4.226,4.226,0,0,0,12,8.4L2.145,17.083a3.419,3.419,0,0,0-.205,4.905h0a3.287,3.287,0,0,0,4.928-.2l8.726-9.81a6.728,6.728,0,0,0,2.875.2A5.686,5.686,0,0,0,22.78,8.192,5.083,5.083,0,0,0,22.678,4.922Z"
				fill="none" stroke="currentColor" stroke-linecap="square" stroke-miterlimit="10"
				stroke-linejoin="miter"/>
		</g>
	</symbol>
	<symbol id="general-i-delete" viewBox="0 0 16 16">
		<g class="nc-icon-wrapper">
			<rect x="4" y="7" width="8" height="2"/>
		</g>
	</symbol>
	<symbol id="general-i-add" viewBox="0 0 16 16">
		<g class="nc-icon-wrapper">
			<polygon points="9,4 7,4 7,7 4,7 4,9 7,9 7,12 9,12 9,9 12,9 12,7 9,7 " fill="currentColor" stroke-linecap="square"
					 stroke-miterlimit="10" stroke-linejoin="miter" stroke="currentColor"/>
		</g>
	</symbol>
	<symbol id="general-preview" viewBox="0 0 24 24">
		<g class="nc-icon-wrapper">
			<path fill="none" stroke="currentColor" stroke-linecap="square" stroke-miterlimit="10"
				  d="M2,12c0,0,4-7,10-7 c6,0,10,7,10,7s-4,7-10,7C6,19,2,12,2,12z" stroke-linejoin="miter"/>
			<circle fill="none" stroke-linecap="square" stroke-miterlimit="10" cx="12" cy="12" r="3"
					stroke-linejoin="miter" stroke="currentColor"/>
		</g>
	</symbol>
	<symbol id="general-engine-start" viewBox="0 0 24 24">
		<g class="nc-icon-wrapper">
			<circle cx="12" cy="12" r="11" fill="none" stroke="currentColor" stroke-linecap="square"
					stroke-miterlimit="10" stroke-linejoin="miter"/>
			<path d="M16.469,8A6,6,0,1,1,7.528,8" fill="none" stroke-linecap="square" stroke-miterlimit="10"
				  stroke-linejoin="miter" stroke="currentColor"/>
			<line x1="12" y1="5" x2="12" y2="11" fill="none" stroke-linecap="square" stroke-miterlimit="10"
				  stroke-linejoin="miter" stroke="currentColor"/>
		</g>
	</symbol>
	<symbol id="general-bullet-list-70" viewBox="0 0 24 24">
		<g class="nc-icon-wrapper">
			<rect x="10" y="2" fill="none" stroke-linecap="square" stroke-miterlimit="10" width="12" height="4"
				  stroke-linejoin="miter" stroke="currentColor"/>
			<rect x="10" y="10" fill="none" stroke-linecap="square" stroke-miterlimit="10" width="12" height="4"
				  stroke-linejoin="miter" stroke="currentColor"/>
			<rect x="10" y="18" fill="none" stroke-linecap="square" stroke-miterlimit="10" width="12" height="4"
				  stroke-linejoin="miter" stroke="currentColor"/>
			<rect x="2" y="2" fill="none" stroke="currentColor" stroke-linecap="square" stroke-miterlimit="10" width="4"
				  height="4" stroke-linejoin="miter"/>
			<rect x="2" y="10" fill="none" stroke="currentColor" stroke-linecap="square" stroke-miterlimit="10"
				  width="4" height="4" stroke-linejoin="miter"/>
			<rect x="2" y="18" fill="none" stroke="currentColor" stroke-linecap="square" stroke-miterlimit="10"
				  width="4" height="4" stroke-linejoin="miter"/>
		</g>
	</symbol>
	<symbol id="general-edit" viewBox="0 0 24 24">
		<g class="nc-icon-wrapper">
			<line x1="2" y1="23" x2="22" y2="23" fill="none" stroke-linecap="square" stroke-miterlimit="10"
				  stroke-linejoin="miter" stroke="currentColor"/>
			<line data-cap="butt" x1="13" y1="5" x2="17" y2="9" fill="none" stroke="currentColor" stroke-miterlimit="10"
				  stroke-linecap="butt"/>
			<polygon points="8 18 3 19 4 14 16 2 20 6 8 18" fill="none" stroke="currentColor" stroke-linecap="square"
					 stroke-miterlimit="10" stroke-linejoin="miter"/>
		</g>
	</symbol>
	<symbol id="general-folder-add" viewBox="0 0 24 24">
		<g class="nc-icon-wrapper">
			<line x1="12" y1="11" x2="12" y2="17" fill="none" stroke-linecap="square" stroke-miterlimit="10"
				  stroke-linejoin="miter" stroke="currentColor"/>
			<line x1="15" y1="14" x2="9" y2="14" fill="none" stroke-linecap="square" stroke-miterlimit="10"
				  stroke-linejoin="miter" stroke="currentColor"/>
			<path d="M21,22H3a2,2,0,0,1-2-2V2H9l3,4H23V20A2,2,0,0,1,21,22Z" fill="none" stroke="currentColor"
				  stroke-linecap="square" stroke-miterlimit="10" stroke-linejoin="miter"/>
		</g>
	</symbol>
</svg>
